<svg fill="none" viewBox="0 0 36 18" xmlns="http://www.w3.org/2000/svg">
  <path d="M0 9a9 9 0 019-9h18a9 9 0 110 18H9a9 9 0 01-9-9z" fill="#FFA264"></path>
  <path
    d="M5.43 5.73v-.64h4.77v.64H8.21c0 .22 0 .39.01.48.07 1.12 1.11 2.08 2.11 2.41l-.42.61c-.84-.34-1.73-1.13-2.09-1.92-.24.82-1.26 1.76-2.2 2.16l-.44-.59c1.1-.42 2.21-1.52 2.25-2.68 0-.08.01-.25.01-.47H5.43zm1.03 4.38h5.64v3.1h-.76v-2.47H6.46v-.63zm6.96-2.65h-1.33v2.19h-.76V4.46h.76v2.36h1.33v.64zm6.692-.36h-1.88v-.63h1.88V4.46h.76v5.43h-.76V7.1zm.85 4.44c0 1.02-1.05 1.65-2.93 1.65-1.87 0-2.92-.63-2.92-1.65s1.05-1.65 2.92-1.65c1.88 0 2.93.63 2.93 1.65zm-2.93-1.03c-1.34 0-2.15.38-2.15 1.03 0 .66.81 1.03 2.15 1.03 1.36 0 2.16-.37 2.16-1.03 0-.65-.8-1.03-2.16-1.03zm.67-1.89l-.45.59c-.84-.4-1.71-1.16-2.05-2.03-.27.9-1.1 1.82-2.11 2.33l-.47-.59c1.26-.58 2.17-1.7 2.17-3.09v-.87h.77v.85c0 1.4 1.15 2.45 2.14 2.81zm8.563 1.96l-.46.57c-.82-.52-1.89-1.62-2.2-2.66-.3 1.06-1.15 2.14-2.2 2.87l-.5-.57c1.29-.76 2.3-2.3 2.3-3.87v-.9h-2.02v-.64h4.83v.64h-2.02v.88c0 1.63 1.07 3 2.27 3.68zm2.96-1.93h-1.42v4.55h-.76V4.46h.76v3.55h1.42v.64z"
    fill="#FFFFFF"></path>
</svg>
