<svg style="pointer-events: none; display: inherit; width: 100%; height: 100%;" aria-hidden="true"
  enable-background="new 0 0 24 24" focusable="false" height="24" viewBox="0 0 24 24" width="24"
  xmlns="http://www.w3.org/2000/svg">
  <path
    d="M12 16.5c.83 0 1.5.67 1.5 1.5s-.67 1.5-1.5 1.5-1.5-.67-1.5-1.5.67-1.5 1.5-1.5zM10.5 12c0 .83.67 1.5 1.5 1.5s1.5-.67 1.5-1.5-.67-1.5-1.5-1.5-1.5.67-1.5 1.5zm0-6c0 .83.67 1.5 1.5 1.5s1.5-.67 1.5-1.5-.67-1.5-1.5-1.5-1.5.67-1.5 1.5z"
    fill="#0F0F0F"></path>
</svg>